<?xml version="1.0" encoding="UTF-8" standalone="no"?>
<!-- Created with Inkscape (http://www.inkscape.org/) -->

<svg
   xmlns:dc="http://purl.org/dc/elements/1.1/"
   xmlns:cc="http://creativecommons.org/ns#"
   xmlns:rdf="http://www.w3.org/1999/02/22-rdf-syntax-ns#"
   xmlns:svg="http://www.w3.org/2000/svg"
   xmlns="http://www.w3.org/2000/svg"
   xmlns:sodipodi="http://sodipodi.sourceforge.net/DTD/sodipodi-0.dtd"
   xmlns:inkscape="http://www.inkscape.org/namespaces/inkscape"
   width="193.77298mm"
   height="193.77299mm"
   viewBox="0 0 686.59717 686.59723"
   id="svg2"
   version="1.1"
   inkscape:version="0.91 r13725"
   sodipodi:docname="logo.svg">
  <defs
     id="defs4">
    <clipPath
       clipPathUnits="userSpaceOnUse"
       id="clipPath3512">
      <rect
         style="fill:#0000ff;fill-rule:evenodd;stroke:#000000;stroke-width:1px;stroke-linecap:butt;stroke-linejoin:miter;stroke-opacity:1"
         id="rect3514"
         width="230"
         height="242"
         x="546"
         y="-329.63779" />
    </clipPath>
    <clipPath
       clipPathUnits="userSpaceOnUse"
       id="clipPath4561">
      <ellipse
         style="opacity:1;fill:#015791;fill-opacity:0.62352941;fill-rule:evenodd;stroke:#ffffff;stroke-width:10.09899998;stroke-miterlimit:4;stroke-dasharray:60.59399986, 60.59399986;stroke-dashoffset:0;stroke-opacity:1"
         id="ellipse4563"
         cx="1282.8572"
         cy="-143.35208"
         rx="280"
         ry="261.42856" />
    </clipPath>
  </defs>
  <sodipodi:namedview
     id="base"
     pagecolor="#ffffff"
     bordercolor="#666666"
     borderopacity="1.0"
     inkscape:pageopacity="0.0"
     inkscape:pageshadow="2"
     inkscape:zoom="0.7"
     inkscape:cx="207.92786"
     inkscape:cy="181.53702"
     inkscape:document-units="px"
     inkscape:current-layer="layer2"
     showgrid="false"
     inkscape:window-width="1918"
     inkscape:window-height="982"
     inkscape:window-x="0"
     inkscape:window-y="24"
     inkscape:window-maximized="0"
     fit-margin-top="0"
     fit-margin-left="0"
     fit-margin-right="0"
     fit-margin-bottom="0" />
  <metadata
     id="metadata7">
    <rdf:RDF>
      <cc:Work
         rdf:about="">
        <dc:format>image/svg+xml</dc:format>
        <dc:type
           rdf:resource="http://purl.org/dc/dcmitype/StillImage" />
        <dc:title></dc:title>
      </cc:Work>
    </rdf:RDF>
  </metadata>
  <g
     inkscape:label="Layer 1"
     inkscape:groupmode="layer"
     id="layer1"
     style="display:inline"
     transform="translate(11.203629,11.337203)" />
  <g
     inkscape:groupmode="layer"
     id="layer2"
     inkscape:label="Layer 2"
     transform="translate(11.203629,11.337203)">
    <g
       style="fill:#ffc107;fill-opacity:1"
       id="g3339"
       transform="matrix(3.5619701,0,0,3.7686314,419.13045,-435.6877)" />
    <g
       style="fill:#ffc107;fill-opacity:1"
       id="g3341"
       transform="matrix(3.5619701,0,0,3.7686314,419.13045,-435.6877)" />
    <g
       style="fill:#ffc107;fill-opacity:1"
       id="g3343"
       transform="matrix(3.5619701,0,0,3.7686314,419.13045,-435.6877)" />
    <g
       style="fill:#ffc107;fill-opacity:1"
       id="g3345"
       transform="matrix(3.5619701,0,0,3.7686314,419.13045,-435.6877)" />
    <g
       style="fill:#ffc107;fill-opacity:1"
       id="g3347"
       transform="matrix(3.5619701,0,0,3.7686314,419.13045,-435.6877)" />
    <g
       style="fill:#ffc107;fill-opacity:1"
       id="g3349"
       transform="matrix(3.5619701,0,0,3.7686314,419.13045,-435.6877)" />
    <g
       style="fill:#ffc107;fill-opacity:1"
       id="g3351"
       transform="matrix(3.5619701,0,0,3.7686314,419.13045,-435.6877)" />
    <g
       style="fill:#ffc107;fill-opacity:1"
       id="g3353"
       transform="matrix(3.5619701,0,0,3.7686314,419.13045,-435.6877)" />
    <g
       style="fill:#ffc107;fill-opacity:1"
       id="g3355"
       transform="matrix(3.5619701,0,0,3.7686314,419.13045,-435.6877)" />
    <g
       style="fill:#ffc107;fill-opacity:1"
       id="g3357"
       transform="matrix(3.5619701,0,0,3.7686314,419.13045,-435.6877)" />
    <g
       style="fill:#ffc107;fill-opacity:1"
       id="g3359"
       transform="matrix(3.5619701,0,0,3.7686314,419.13045,-435.6877)" />
    <g
       style="fill:#ffc107;fill-opacity:1"
       id="g3361"
       transform="matrix(3.5619701,0,0,3.7686314,419.13045,-435.6877)" />
    <g
       style="fill:#ffc107;fill-opacity:1"
       id="g3363"
       transform="matrix(3.5619701,0,0,3.7686314,419.13045,-435.6877)" />
    <g
       style="fill:#ffc107;fill-opacity:1"
       id="g3365"
       transform="matrix(3.5619701,0,0,3.7686314,419.13045,-435.6877)" />
    <g
       style="fill:#ffc107;fill-opacity:1"
       id="g3367"
       transform="matrix(3.5619701,0,0,3.7686314,419.13045,-435.6877)" />
    <path
       style="opacity:1;fill:#015791;fill-opacity:0.62352941;stroke:none;stroke-width:22.59999466;stroke-miterlimit:4;stroke-dasharray:none;stroke-opacity:0.62352941"
       d="M 332.09456,-11.337203 C 142.49626,-11.337087 -11.203509,142.36268 -11.203629,331.96098 -11.203974,521.55961 142.49593,675.25989 332.09456,675.26001 521.69351,675.26033 675.3939,521.55993 675.39355,331.96098 675.39343,142.36236 521.69318,-11.33753 332.09456,-11.337203 Z m 10.51075,71.336692 C 442.06454,63.843211 531.49286,121.67319 575.80287,210.7997 642.71873,345.39585 587.85291,508.75361 453.25668,575.66931 318.66052,642.58517 155.30276,587.71934 88.387063,453.1231 21.471205,318.52695 76.337035,155.16919 210.93327,88.25349 251.76411,67.95401 297.04079,58.238604 342.60531,59.999489 Z"
       id="circle4387"
       inkscape:connector-curvature="0"
       sodipodi:nodetypes="sssssssssss" />
    <g
       id="g4554"
       clip-path="url(#clipPath4561)"
       transform="matrix(0.81844811,-0.07024969,0.07024969,0.81844811,-671.4094,504.1415)">
      <path
         transform="matrix(0.9105378,0,0,0.432336,876.188,-25.721158)"
         clip-path="url(#clipPath3512)"
         style="fill:#795548"
         d="m 521.445,-261.40926 c -9.5544,20.44976 -21.48128,39.57146 -35.50987,56.93957 -49.0356,5.94411 -100.79183,27.64458 -144.23147,61.1688 l -145.05668,0 c -42.4468,-32.72479 -92.7847,-54.12871 -140.77589,-60.66593 -38.591525,-47.5528 -61.8005938,-108.10268 -61.8005938,-174.11959 0,-152.79303 123.8461738,-276.6392 276.6263138,-276.6392 67.77048,0 129.79027,24.44688 177.88461,64.89513 129.63555,42.97546 221.9045,114.872 206.72835,161.72853 -8.63893,26.69043 -50.27344,39.54568 -108.56688,38.06287 0.18051,3.99712 0.60601,7.91687 0.60601,11.95267 -3.73869,57.52438 -24.3439,110.59921 17.2134,168.56231 135.37335,176.221299 171.91474,68.69884 171.91474,-81.69592 l -111.76457,0 0.36103,38.60442 c 0,0 -36.954,-31.26777 -85.17729,-62.58712"
         id="path3396"
         inkscape:connector-curvature="0" />
      <path
         id="path3337"
         d="m 1390.6756,-190.70405 -55.752,0 c -13.7135,0 -30.1805,-10.4881 -36.5636,-23.31652 l -1.5102,-3.01867 c -6.3973,-12.81335 -22.8465,-23.30145 -36.5601,-23.30145 l -58.3914,0 c -13.6993,0 -33.4433,7.70685 -43.8585,17.1322 l -123.8105,111.95473 c -10.4152,9.44042 -30.1806,17.158579 -43.85858,17.158579 l -197.98142,0 c -74.53423,-2.012449 -132.2239,28.569994 -132.2239,28.569994 -12.67705,5.509739 -34.02393,7.556106 -47.42763,4.526127 0,0 -84.07318,-13.476626 -193.60732,-120.23819 0,0 42.48718,119.499538 128.04214,195.429923 17.12595,15.183816 19.25245,20.003896 14.15171,33.442835 L 495.1144,222.19098 c -5.0865,13.45778 -6.88173,36.07334 -3.9431,50.25847 l 25.86702,125.05826 c 2.90657,14.18513 16.54535,25.7586 30.23757,25.7586 l 53.18377,0 c 13.69221,0 24.92667,-11.48302 24.92667,-25.49856 0,-14.07207 -10.86757,-28.01601 -24.13235,-31.06483 -13.26834,-3.04883 -25.30423,-17.30933 -26.73615,-31.75449 l -2.60736,-26.15807 c -1.44972,-14.4527 5.62079,-34.32846 15.62636,-44.22112 l 82.54154,-81.33837 c 10.02338,-9.89266 15.88995,-6.3803 12.99406,7.80483 l -13.3467,65.7287 c -2.88163,14.16252 0.18522,36.15248 6.79624,48.86408 l 46.37329,89.01884 c 6.60745,12.70782 23.22761,22.79645 36.90913,22.43843 l 54.50883,-1.45092 c 13.69222,-0.35425 21.70665,-10.26575 17.7493,-22.01635 -3.92885,-11.7619 -16.27464,-22.00127 -27.3773,-22.78891 -11.12047,-0.74619 -24.28195,-12.4101 -29.2509,-25.93572 l -18.44744,-50.1944 c -4.96895,-13.53693 -4.17819,-35.25932 1.73468,-48.36662 l 25.39684,-55.92649 c 5.90575,-13.03946 21.99161,-23.84036 35.69094,-23.97226 l 128.81865,-0.99869 c 13.69221,-0.0905 21.19016,11.00817 16.60947,24.68077 l -69.45842,208.27341 c -4.56644,13.69898 2.91369,24.43581 16.62372,23.88559 l 88.39744,-3.53498 c 13.6993,-0.56153 21.1011,-10.00195 16.4385,-21.00258 -4.6627,-11.00064 -17.2756,-24.0288 -28.04343,-28.98078 -10.77496,-4.93314 -12.70911,-18.33439 -4.30999,-29.81741 l 32.06842,-43.82165 c 8.4063,-11.47548 21.3718,-10.91018 28.8341,1.2738 l 64.1689,104.76419 c 7.4481,12.15006 24.7735,22.10302 38.4764,22.10302 l 58.3843,0 c 13.7029,0 19.801,-10.55971 13.5711,-23.48611 l -5.9948,-12.36111 c -6.2441,-12.92264 -21.3255,-23.48235 -33.511,-23.48235 -12.1891,0 -24.5242,-11.57723 -27.4236,-25.77367 L 1123.5278,191.0357 c -2.8816,-14.18513 1.4284,-35.32715 9.5711,-46.98729 l 137.2854,-196.620811 c 8.1356,-11.663914 25.9739,-22.528878 39.5949,-24.187076 l 28.0434,-3.35785 c 13.6209,-1.628049 32.1895,-11.878727 41.2369,-22.770073 l 19.8865,-23.8592 c 9.0616,-10.87627 16.4634,-29.73451 16.4634,-41.88457 0.01,-12.12369 -11.2166,-22.07288 -24.9338,-22.07288 z"
         inkscape:connector-curvature="0"
         style="fill:#ffc107;fill-opacity:1" />
      <g
         style="fill:#795548;fill-opacity:1"
         inkscape:label="Camada 1"
         id="layer1-6"
         transform="matrix(1.4891644,-0.62899726,0.5945048,1.575564,456.40846,-1673.8574)">
        <g
           style="display:inline;fill:#795548;fill-opacity:1;stroke:none"
           id="layer2-7"
           transform="matrix(1.0994081,0.08720261,-0.08720261,1.0994081,-235.31352,545.20674)">
          <path
             style="display:inline;overflow:visible;visibility:visible;fill:#795548;fill-opacity:1;fill-rule:evenodd;stroke:none;stroke-width:1px;marker:none;enable-background:accumulate"
             id="path2397"
             d="m 338.78125,288.75 c -4.24185,0.0172 -8.42194,2.50585 -9.5,5.75 -6.7834,0.0291 -14.64601,3.49584 -19.5,6.15625 -3.59007,1.96767 -6.14402,5.81391 -9.25,7.28125 -20.47608,9.67343 -16.20422,22.75409 -22.3125,34.78125 -1.25956,2.48006 -0.87876,6.67723 -2.5,8.9375 -3.39812,4.73752 -18.96706,16.56639 -21.78125,21.40625 -0.46329,0.79677 1.25858,2.16601 2.15625,2.375 5.43296,1.26487 12.00045,1.29131 16.75,0.5 56.48975,-8.11949 46.81018,-7.79097 114.0313,-10.99995 5.04943,1.13001 17.2358,2.68264 23.09375,3.09375 1.37805,0.0967 2.68562,-1.54001 1.96875,-2.1875 -7.49526,-6.76995 -16.87746,-16.23045 -21.59375,-19.90625 -0.46923,-2.00904 0.82317,-5.42638 -0.25,-7.15625 -4.06872,-6.55847 -6.44957,-10.82575 -8.53125,-22.8125 -0.73804,-4.24976 -20.04785,-15.28297 -31.90625,-18.96875 -0.47025,-3.6777 -5.48235,-7.87832 -10,-8.21875 -0.28235,-0.0213 -0.59221,-0.0324 -0.875,-0.0312 z"
             inkscape:connector-curvature="0"
             sodipodi:nodetypes="ccssssssccsscsscccc" />
        </g>
      </g>
    </g>
  </g>
</svg>
